{
    "asset" : {
        "generator" : "Khronos glTF Blender I/O v1.7.33",
        "version" : "2.0"
    },
    "scene" : 0,
    "scenes" : [
        {
            "name" : "Scene",
            "nodes" : [
                0,
                1,
                2,
                3
            ]
        }
    ],
    "nodes" : [
        {
            "name" : "Empty",
            "rotation" : [
                0.7071068286895752,
                0.7071067690849304,
                0,
                -1.1520231879558196e-07
            ],
            "translation" : [
                -0.023795416578650475,
                0,
                0
            ]
        },
        {
            "mesh" : 0,
            "name" : "crate"
        },
        {
            "name" : "Camera",
            "rotation" : [
                0.19686579704284668,
                0.7987081408500671,
                -0.4464285969734192,
                0.352151483297348
            ],
            "translation" : [
                4.758890151977539,
                3.8892953395843506,
                -4.361671447753906
            ]
        },
        {
            "name" : "Point",
            "rotation" : [
                0.3544527292251587,
                0.6133087277412415,
                -0.35696837306022644,
                0.6089246869087219
            ],
            "translation" : [
                2.343128204345703,
                2.1114249229431152,
                2.3883285522460938
            ]
        }
    ],
    "materials" : [
        {
            "doubleSided" : true,
            "name" : "crate",
            "normalTexture" : {
                "index" : 0,
                "scale" : 1.100000023841858
            },
            "pbrMetallicRoughness" : {
                "baseColorTexture" : {
                    "index" : 1
                },
                "metallicRoughnessTexture" : {
                    "index" : 2
                }
            }
        }
    ],
    "meshes" : [
        {
            "name" : "Cube.004",
            "primitives" : [
                {
                    "attributes" : {
                        "POSITION" : 0,
                        "NORMAL" : 1,
                        "TEXCOORD_0" : 2
                    },
                    "indices" : 3,
                    "material" : 0
                }
            ]
        }
    ],
    "textures" : [
        {
            "sampler" : 0,
            "source" : 0
        },
        {
            "sampler" : 0,
            "source" : 1
        },
        {
            "sampler" : 0,
            "source" : 2
        }
    ],
    "images" : [
        {
            "bufferView" : 4,
            "mimeType" : "image/png",
            "name" : "crate_Normal"
        },
        {
            "bufferView" : 5,
            "mimeType" : "image/png",
            "name" : "crate_BaseColor"
        },
        {
            "bufferView" : 6,
            "mimeType" : "image/png",
            "name" : "crate_Metallic-crate_Roughness"
        }
    ],
    "accessors" : [
        {
            "bufferView" : 0,
            "componentType" : 5126,
            "count" : 752,
            "max" : [
                1,
                1,
                1
            ],
            "min" : [
                -1,
                -1,
                -1
            ],
            "type" : "VEC3"
        },
        {
            "bufferView" : 1,
            "componentType" : 5126,
            "count" : 752,
            "type" : "VEC3"
        },
        {
            "bufferView" : 2,
            "componentType" : 5126,
            "count" : 752,
            "type" : "VEC2"
        },
        {
            "bufferView" : 3,
            "componentType" : 5123,
            "count" : 1764,
            "type" : "SCALAR"
        }
    ],
    "bufferViews" : [
        {
            "buffer" : 0,
            "byteLength" : 9024,
            "byteOffset" : 0
        },
        {
            "buffer" : 0,
            "byteLength" : 9024,
            "byteOffset" : 9024
        },
        {
            "buffer" : 0,
            "byteLength" : 6016,
            "byteOffset" : 18048
        },
        {
            "buffer" : 0,
            "byteLength" : 3528,
            "byteOffset" : 24064
        },
        {
            "buffer" : 0,
            "byteLength" : 1384542,
            "byteOffset" : 27592
        },
        {
            "buffer" : 0,
            "byteLength" : 1153482,
            "byteOffset" : 1412136
        },
        {
            "buffer" : 0,
            "byteLength" : 375156,
            "byteOffset" : 2565620
        }
    ],
    "samplers" : [
        {
            "magFilter" : 9729,
            "minFilter" : 9987
        }
    ],
    "buffers" : [
        {
            "byteLength" : 2940776,
            "uri" : "data:application/octet-stream;base64,"
        }
    ]
}
